<?xml version="1.0" standalone="no"?>
<!DOCTYPE svg PUBLIC "-//W3C//DTD SVG 20010904//EN"
 "http://www.w3.org/TR/2001/REC-SVG-20010904/DTD/svg10.dtd">
<svg version="1.0" xmlns="http://www.w3.org/2000/svg"
 width="369.000000pt" height="369.000000pt" viewBox="0 0 369.000000 369.000000"
 preserveAspectRatio="xMidYMid meet">
<metadata>
Created by potrace 1.14, written by Peter Selinger 2001-2017
</metadata>
<g transform="translate(0.000000,369.000000) scale(0.100000,-0.100000)"
fill="#000000" stroke="none">
<path d="M340 3360 c0 -17 7 -20 53 -21 247 -4 335 -68 374 -274 2 -11 5 -362
7 -780 2 -418 6 -777 10 -798 70 -415 288 -745 582 -877 27 -12 53 -24 57 -27
4 -3 -8 21 -28 52 -36 56 -61 113 -73 170 -4 17 -7 534 -7 1150 l0 1120 22 71
c44 140 136 189 361 193 35 1 42 4 42 21 0 20 -7 20 -700 20 -693 0 -700 0
-700 -20z"/>
<path d="M1937 3064 c-1 -1 -41 -5 -89 -8 -48 -3 -93 -8 -100 -11 -7 -2 -31
-7 -52 -10 -58 -8 -189 -43 -252 -66 l-54 -20 -1 -47 c-4 -133 -5 -268 -2
-274 2 -3 31 21 66 55 74 74 96 92 162 134 95 61 234 114 360 138 66 13 225
12 310 0 218 -34 449 -136 575 -257 79 -74 90 -119 61 -239 -11 -46 -31 -114
-44 -152 -14 -39 -21 -70 -15 -73 12 -8 12 -8 38 50 36 80 150 319 161 340 9
16 1 28 -63 88 -210 200 -477 314 -803 344 -65 5 -254 11 -258 8z"/>
<path d="M2390 1313 c0 -7 8 -14 18 -14 9 -1 26 -3 37 -5 11 -1 45 -5 76 -8
75 -8 120 -28 156 -70 43 -48 57 -98 57 -197 -2 -233 -147 -461 -359 -563
-129 -63 -246 -84 -437 -80 -119 2 -136 4 -208 24 -25 7 -56 14 -70 16 -383
64 -662 268 -834 611 -20 40 -36 79 -36 87 0 8 -4 17 -8 20 -5 3 -8 -77 -8
-178 1 -155 -11 -328 -26 -386 -2 -8 -14 -36 -27 -63 -42 -86 -120 -124 -275
-133 -97 -6 -110 -11 -104 -40 3 -18 36 -19 918 -21 917 -1 935 -1 1125 32 97
16 223 60 373 129 128 59 185 70 242 48 39 -16 89 -71 101 -113 7 -21 17 -40
23 -42 9 -4 12 77 12 312 0 174 3 350 7 391 16 168 81 222 264 222 54 0 64 3
61 17 -3 14 -52 16 -541 16 -425 0 -537 -2 -537 -12z"/>
</g>
</svg>
